<?xml version="1.0" standalone="no"?>
<!DOCTYPE svg PUBLIC "-//W3C//DTD SVG 20010904//EN"
 "http://www.w3.org/TR/2001/REC-SVG-20010904/DTD/svg10.dtd">
<svg version="1.0" xmlns="http://www.w3.org/2000/svg"
 width="512.000000pt" height="512.000000pt" viewBox="0 0 512.000000 512.000000"
 preserveAspectRatio="xMidYMid meet">
<metadata>
Created by potrace 1.14, written by Peter Selinger 2001-2017
</metadata>
<g transform="translate(0.000000,512.000000) scale(0.100000,-0.100000)"
fill="#000000" stroke="none">
<path d="M3430 5104 c-99 -20 -100 -20 -172 -47 -59 -23 -191 -89 -413 -207
-38 -20 -122 -64 -185 -97 -63 -34 -153 -81 -200 -105 -195 -103 -306 -161
-500 -263 -113 -59 -241 -127 -285 -150 -96 -51 -338 -178 -595 -312 -58 -31
-134 -76 -170 -101 -184 -131 -319 -327 -380 -552 -30 -108 -37 -322 -15 -420
101 -445 420 -735 874 -794 24 -3 46 -7 47 -9 2 -2 -29 -20 -69 -40 -422 -215
-515 -279 -631 -430 -141 -185 -207 -379 -207 -604 1 -412 262 -775 658 -917
111 -39 221 -55 363 -51 204 5 300 38 655 228 66 35 183 96 260 137 77 40 167
87 200 105 33 18 119 63 190 100 72 37 162 84 200 105 39 20 124 65 190 100
66 34 161 84 210 110 50 26 140 73 200 105 61 32 146 77 190 100 44 23 130 68
190 100 61 32 139 78 175 103 89 62 200 179 256 267 43 69 119 235 108 235 -2
0 0 9 6 20 46 85 49 375 7 523 -77 269 -241 473 -490 611 -95 52 -268 104
-364 108 -29 2 -53 5 -53 8 0 3 35 23 77 45 448 233 505 272 627 429 80 103
156 255 181 361 21 94 24 126 24 245 1 116 -16 215 -54 320 -115 320 -396 561
-738 631 -79 17 -292 18 -367 3z m-1382 -1783 c15 -11 295 -185 622 -386 327
-202 598 -370 603 -374 6 -6 -54 -46 -181 -122 -15 -9 -85 -52 -157 -96 -71
-44 -272 -166 -445 -272 -173 -106 -349 -214 -390 -240 -41 -26 -80 -51 -87
-55 -9 -5 -12 171 -12 779 0 506 4 785 10 785 5 0 22 -9 37 -19z"/>
</g>
</svg>
